<svg xmlns="http://www.w3.org/2000/svg" version="1.1" xmlns:xlink="http://www.w3.org/1999/xlink" xmlns:svgjs="http://svgjs.dev/svgjs" width="1000" height="1000" viewBox="0 0 1000 1000"><rect width="1000" height="1000" fill="#ffffff"></rect><g transform="matrix(0.7,0,0,0.7,149.57575757575756,448.3090192699093)"><svg viewBox="0 0 396 59" data-background-color="#ffffff" preserveAspectRatio="xMidYMid meet" height="148" width="1000" xmlns="http://www.w3.org/2000/svg" xmlns:xlink="http://www.w3.org/1999/xlink"><g id="tight-bounds" transform="matrix(1,0,0,1,0.2400000000000091,-0.06208626375146764)"><svg viewBox="0 0 395.52 59.12417235812124" height="59.12417235812124" width="395.52"><g><svg viewBox="0 0 503.6463052289979 75.28739623252987" height="59.12417235812124" width="395.52"><g transform="matrix(1,0,0,1,108.12630522899792,10.405132185537777)"><svg viewBox="0 0 395.52 54.47713186145432" height="54.47713186145432" width="395.52"><g id="textblocktransform"><svg viewBox="0 0 395.52 54.47713186145432" height="54.47713186145432" width="395.52" id="textblock"><g><svg viewBox="0 0 395.52 54.47713186145432" height="54.47713186145432" width="395.52"><g transform="matrix(1,0,0,1,0,0)"><svg width="395.52" viewBox="5 -33.25 246.8300018310547 34" height="54.47713186145432" data-palette-color="#124948"><path d="M8.5-15L8.5 0 5 0 5-32.5 8.5-32.5 8.5-18 18.35-18 18.35-32.5 21.85-32.5 21.85 0 18.35 0 18.35-15 8.5-15ZM44.1-6.25L44.1-6.25 44.1-9 47.6-9 47.6-6.25Q47.6-2.9 45.55-1.07 43.5 0.75 39.4 0.75 35.3 0.75 33.2-1.07 31.1-2.9 31.1-6.25L31.1-6.25 31.1-26.25Q31.1-29.6 33.15-31.43 35.2-33.25 39.3-33.25 43.4-33.25 45.5-31.43 47.6-29.6 47.6-26.25L47.6-26.25 47.6-15.25 34.6-15.25 34.6-6.25Q34.6-2.25 39.35-2.25 44.1-2.25 44.1-6.25ZM34.6-26.25L34.6-26.25 34.6-18.25 44.1-18.25 44.1-26.25Q44.1-30.25 39.35-30.25 34.6-30.25 34.6-26.25ZM72.34-26.25L72.34 0 70.84 0 69.55-3.2Q68.5-1.4 66.8-0.33 65.09 0.75 63.05 0.75L63.05 0.75Q55.84 0.75 55.84-6.25L55.84-6.25 55.84-11.25Q55.84-18.25 63.05-18.25L63.05-18.25 68.84-18.25 68.84-26.45Q68.84-28.25 67.69-29.25 66.55-30.25 64.3-30.25L64.3-30.25Q59.84-30.25 59.84-26.45L59.84-26.45 59.84-23.5 56.34-23.5 56.34-26.25Q56.34-29.6 58.32-31.43 60.3-33.25 64.3-33.25 68.3-33.25 70.32-31.43 72.34-29.6 72.34-26.25L72.34-26.25ZM68.84-7.1L68.84-15.25 63.05-15.25Q60.95-15.25 60.14-14.2 59.34-13.15 59.34-11.25L59.34-11.25 59.34-6.25Q59.34-4.35 60.14-3.3 60.95-2.25 63.05-2.25 65.14-2.25 66.94-3.88 68.75-5.5 68.84-7.1L68.84-7.1ZM94.49 0L81.84 0 81.84-32.5 85.34-32.5 85.34-3 94.49-3 94.49 0ZM99.74-5.75L99.74-32.5 110.74-32.5 110.74-29.5 103.24-29.5 103.24-5.55Q103.24-4.15 103.97-3.2 104.69-2.25 106.02-2.25 107.34-2.25 108.04-3.18 108.74-4.1 108.74-5.55L108.74-5.55 108.74-11.5 112.24-11.5 112.24-5.75Q112.24-2.6 110.57-0.93 108.89 0.75 106.04 0.75 103.19 0.75 101.47-0.93 99.74-2.6 99.74-5.75L99.74-5.75ZM122.74-15L122.74 0 119.24 0 119.24-32.5 122.74-32.5 122.74-18 132.59-18 132.59-32.5 136.09-32.5 136.09 0 132.59 0 132.59-15 122.74-15ZM142.59-32.5L159.09-32.5 159.09-29.5 152.59-29.5 152.59 0 149.09 0 149.09-29.5 142.59-29.5 142.59-32.5ZM169.08-22.85L169.08 0 165.58 0 165.58-32.5 167.08-32.5 168.53-28.8Q170.13-33.25 173.63-33.25L173.63-33.25Q179.58-33.25 179.58-26.75L179.58-26.75 179.58-23.5 176.23-23.5 176.23-26.95Q176.23-30.25 173.48-30.25L173.48-30.25Q171.83-30.25 170.46-28.35 169.08-26.45 169.08-22.85L169.08-22.85ZM201.08-26.25L201.08 0 199.58 0 198.28-3.2Q197.23-1.4 195.53-0.33 193.83 0.75 191.78 0.75L191.78 0.75Q184.58 0.75 184.58-6.25L184.58-6.25 184.58-11.25Q184.58-18.25 191.78-18.25L191.78-18.25 197.58-18.25 197.58-26.45Q197.58-28.25 196.43-29.25 195.28-30.25 193.03-30.25L193.03-30.25Q188.58-30.25 188.58-26.45L188.58-26.45 188.58-23.5 185.08-23.5 185.08-26.25Q185.08-29.6 187.06-31.43 189.03-33.25 193.03-33.25 197.03-33.25 199.06-31.43 201.08-29.6 201.08-26.25L201.08-26.25ZM197.58-7.1L197.58-15.25 191.78-15.25Q189.68-15.25 188.88-14.2 188.08-13.15 188.08-11.25L188.08-11.25 188.08-6.25Q188.08-4.35 188.88-3.3 189.68-2.25 191.78-2.25 193.88-2.25 195.68-3.88 197.48-5.5 197.58-7.1L197.58-7.1ZM222.83-6.25L222.83-6.25 222.83-9 226.33-9 226.33-6.25Q226.33-2.9 224.28-1.07 222.23 0.75 218.13 0.75 214.03 0.75 211.93-1.07 209.83-2.9 209.83-6.25L209.83-6.25 209.83-26.25Q209.83-29.6 211.88-31.43 213.93-33.25 218.03-33.25 222.13-33.25 224.23-31.43 226.33-29.6 226.33-26.25L226.33-26.25 226.33-21.5 222.83-21.5 222.83-26.25Q222.83-30.25 218.08-30.25 213.33-30.25 213.33-26.25L213.33-26.25 213.33-6.25Q213.33-2.25 218.08-2.25 222.83-2.25 222.83-6.25ZM238.63-12.5L238.63 0 235.13 0 235.13-32.5 238.63-32.5 238.63-18.7 247.33-32.5 251.23-32.5 242.38-18.5 251.83 0 247.98 0 240.28-15.15 238.63-12.5Z" opacity="1" transform="matrix(1,0,0,1,0,0)" fill="#124948" class="undefined-text-0" data-fill-palette-color="primary" id="text-0"></path></svg></g></svg></g></svg></g></svg></g><g><svg viewBox="0 0 95.26556184767323 75.28739623252987" height="75.28739623252987" width="95.26556184767323"><g><svg xmlns="http://www.w3.org/2000/svg" xmlns:xlink="http://www.w3.org/1999/xlink" version="1.1" x="0" y="0" viewBox="2.822999954223633 12.981998443603516 94.35400390625 74.56700134277344" enable-background="new 0 0 100 100" xml:space="preserve" height="75.28739623252987" width="95.26556184767323" class="icon-icon-0" data-fill-palette-color="accent" id="icon-0"><path fill="#e2353c" d="M49.997 87.549l-36.819-28.54C6.609 54.122 2.823 46.657 2.823 38.552c0-14.1 11.472-25.57 25.573-25.57 8.85 0 16.964 4.573 21.601 11.92 4.638-7.347 12.757-11.92 21.614-11.92 14.098 0 25.566 11.471 25.566 25.57 0 8.111-3.786 15.576-10.388 20.481L49.997 87.549zM28.396 16.981c-11.896 0-21.573 9.676-21.573 21.57 0 6.828 3.198 13.123 8.773 17.271l34.4 26.665 34.375-26.642c5.608-4.167 8.806-10.462 8.806-17.295 0-11.894-9.675-21.57-21.566-21.57-8.586 0-16.35 5.096-19.78 12.983l-1.834 4.216-1.834-4.216C44.733 22.078 36.974 16.981 28.396 16.981z" data-fill-palette-color="accent"></path><polygon points="41.217,50.026 40.455,52.201 27.673,52.201 27.673,48.643 37.931,48.643 40.816,40.402 48.315,57.197   56.207,32.901 62.359,49.532 72.329,49.532 72.329,53.09 59.881,53.09 56.426,43.747 48.84,67.1 " fill="#e2353c" data-fill-palette-color="accent"></polygon></svg></g></svg></g></svg></g><defs></defs></svg><rect width="395.52" height="59.12417235812124" fill="none" stroke="none" visibility="hidden"></rect></g></svg></g></svg>